<svg xmlns="http://www.w3.org/2000/svg" xmlns:xlink="http://www.w3.org/1999/xlink" width="2711" height="1230" viewBox="0 0 2711 1230"><defs><clipPath id="a"><path d="M0,1262.635V-.126H2740.652V1262.635H0Z"/></clipPath><clipPath id="b"><path d="M1.333,1261.3h2738.6V0H1.333Z" fill="#fff"/></clipPath><clipPath id="c"><path d="M315.1,283.121c-41.568,84.449-19.835,225.436,51.708,287.429,1.465-46.4-25.359-144.542-29.793-207.694-2.524-35.956,1.549-73.183,12.19-103.944,5.395-15.594,11.318-26.642,18.941-39.662a147.493,147.493,0,0,1,11.537-17.018c5.052-6.3,9.768-10.8,13.446-16.529-32.3,15.08-62.582,66.041-78.03,97.418"/></clipPath><linearGradient id="d" x1="0.121" y1="0.886" x2="0.112" y2="0.839" gradientUnits="objectBoundingBox"><stop offset="0" stop-color="#aa1f40"/><stop offset="0.01" stop-color="#aa1f40"/><stop offset="0.02" stop-color="#ab2041"/><stop offset="0.03" stop-color="#ac2142"/><stop offset="0.04" stop-color="#ad2143"/><stop offset="0.05" stop-color="#ad2243"/><stop offset="0.06" stop-color="#ae2244"/><stop offset="0.07" stop-color="#ae2244"/><stop offset="0.08" stop-color="#af2345"/><stop offset="0.09" stop-color="#b02446"/><stop offset="0.1" stop-color="#b12447"/><stop offset="0.11" stop-color="#b12547"/><stop offset="0.12" stop-color="#b22548"/><stop offset="0.13" stop-color="#b22548"/><stop offset="0.14" stop-color="#b32649"/><stop offset="0.15" stop-color="#b4274a"/><stop offset="0.16" stop-color="#b4274a"/><stop offset="0.17" stop-color="#b5284b"/><stop offset="0.18" stop-color="#b6294c"/><stop offset="0.19" stop-color="#b7294d"/><stop offset="0.2" stop-color="#b72a4d"/><stop offset="0.21" stop-color="#b82a4e"/><stop offset="0.22" stop-color="#b82a4e"/><stop offset="0.23" stop-color="#b92b4f"/><stop offset="0.24" stop-color="#ba2c50"/><stop offset="0.25" stop-color="#bb2c51"/><stop offset="0.26" stop-color="#bb2d51"/><stop offset="0.27" stop-color="#bc2d52"/><stop offset="0.28" stop-color="#bc2d52"/><stop offset="0.29" stop-color="#bd2e53"/><stop offset="0.3" stop-color="#be2f54"/><stop offset="0.31" stop-color="#bf2f55"/><stop offset="0.32" stop-color="#bf3055"/><stop offset="0.33" stop-color="#c03156"/><stop offset="0.34" stop-color="#c13157"/><stop offset="0.35" stop-color="#c13257"/><stop offset="0.36" stop-color="#c23258"/><stop offset="0.37" stop-color="#c23258"/><stop offset="0.38" stop-color="#c33359"/><stop offset="0.39" stop-color="#c4345a"/><stop offset="0.4" stop-color="#c5345b"/><stop offset="0.41" stop-color="#c5355c"/><stop offset="0.42" stop-color="#c6355c"/><stop offset="0.43" stop-color="#c6355c"/><stop offset="0.44" stop-color="#c7365e"/><stop offset="0.45" stop-color="#c8375e"/><stop offset="0.46" stop-color="#c9375f"/><stop offset="0.47" stop-color="#c93860"/><stop offset="0.48" stop-color="#ca3860"/><stop offset="0.49" stop-color="#ca3860"/><stop offset="0.5" stop-color="#cb3a62"/><stop offset="0.51" stop-color="#cc3a62"/><stop offset="0.52" stop-color="#cc3a62"/><stop offset="0.53" stop-color="#cd3b64"/><stop offset="0.54" stop-color="#ce3c64"/><stop offset="0.55" stop-color="#cf3c65"/><stop offset="0.56" stop-color="#cf3d66"/><stop offset="0.57" stop-color="#d03d66"/><stop offset="0.58" stop-color="#d03d66"/><stop offset="0.59" stop-color="#d23e68"/><stop offset="0.6" stop-color="#d23f68"/><stop offset="0.61" stop-color="#d33f69"/><stop offset="0.62" stop-color="#d4406a"/><stop offset="0.63" stop-color="#d4406a"/><stop offset="0.64" stop-color="#d4406a"/><stop offset="0.65" stop-color="#d6416c"/><stop offset="0.66" stop-color="#d6426c"/><stop offset="0.67" stop-color="#d7426d"/><stop offset="0.68" stop-color="#d8436e"/><stop offset="0.69" stop-color="#d8446e"/><stop offset="0.7" stop-color="#d9446f"/><stop offset="0.71" stop-color="#da4570"/><stop offset="0.72" stop-color="#da4570"/><stop offset="0.73" stop-color="#da4570"/><stop offset="0.74" stop-color="#dc4672"/><stop offset="0.75" stop-color="#dc4772"/><stop offset="0.76" stop-color="#dd4773"/><stop offset="0.77" stop-color="#de4874"/><stop offset="0.78" stop-color="#de4874"/><stop offset="0.79" stop-color="#de4874"/><stop offset="0.8" stop-color="#e04976"/><stop offset="0.81" stop-color="#e04a76"/><stop offset="0.82" stop-color="#e14a77"/><stop offset="0.83" stop-color="#e24b78"/><stop offset="0.84" stop-color="#e24b78"/><stop offset="0.85" stop-color="#e34c79"/><stop offset="0.86" stop-color="#e44d7a"/><stop offset="0.87" stop-color="#e44d7a"/><stop offset="0.88" stop-color="#e54e7b"/><stop offset="0.89" stop-color="#e64e7c"/><stop offset="0.9" stop-color="#e64f7c"/><stop offset="0.91" stop-color="#e74f7d"/><stop offset="0.92" stop-color="#e8507e"/><stop offset="0.93" stop-color="#e8507e"/><stop offset="0.94" stop-color="#e9517f"/><stop offset="0.95" stop-color="#ea5180"/><stop offset="0.96" stop-color="#ea5280"/><stop offset="0.97" stop-color="#eb5281"/><stop offset="0.98" stop-color="#ec5382"/><stop offset="0.99" stop-color="#ec5382"/><stop offset="1" stop-color="#ec5383"/></linearGradient><clipPath id="e"><path d="M381.893,593.2c-.485,21.538-6.863,42.12-6.9,48.031,4.367-3.168,14.793-17.868,18.752-23.387.7-.981,2.187-2.851,2.992-4.184,2.885-4.777,1.232-1.4,1.984-4.5,7.47-7.209,18.361-30.559,22.365-39.734,49.249-112.868-9.961-228.329,28.394-333.141,8.282-22.631,24.69-49.521,41.77-66.832,7.716-7.821,13.462-14.257,23.074-23.169-35.038-4.775-87.427,29.074-111.023,55.285C307.08,308.438,382.458,444.917,381.893,593.2"/></clipPath><linearGradient id="f" x1="0.154" y1="0.008" x2="0.148" y2="0.956" gradientUnits="objectBoundingBox"><stop offset="0" stop-color="#4397d1"/><stop offset="0.01" stop-color="#4398d1"/><stop offset="0.02" stop-color="#4398d1"/><stop offset="0.03" stop-color="#4398d1"/><stop offset="0.04" stop-color="#4398d1"/><stop offset="0.05" stop-color="#4499d0"/><stop offset="0.06" stop-color="#4499d0"/><stop offset="0.07" stop-color="#4499cf"/><stop offset="0.08" stop-color="#4499cf"/><stop offset="0.09" stop-color="#4499cf"/><stop offset="0.1" stop-color="#4499cf"/><stop offset="0.11" stop-color="#4499cf"/><stop offset="0.12" stop-color="#4499cf"/><stop offset="0.13" stop-color="#459ace"/><stop offset="0.14" stop-color="#459ace"/><stop offset="0.15" stop-color="#459ace"/><stop offset="0.16" stop-color="#459ace"/><stop offset="0.17" stop-color="#459acd"/><stop offset="0.18" stop-color="#459acd"/><stop offset="0.19" stop-color="#459acd"/><stop offset="0.2" stop-color="#459acd"/><stop offset="0.21" stop-color="#469bcc"/><stop offset="0.22" stop-color="#469bcc"/><stop offset="0.23" stop-color="#469bcc"/><stop offset="0.24" stop-color="#469bcc"/><stop offset="0.25" stop-color="#479bcb"/><stop offset="0.26" stop-color="#479bcb"/><stop offset="0.27" stop-color="#479bcb"/><stop offset="0.28" stop-color="#479bca"/><stop offset="0.29" stop-color="#479cca"/><stop offset="0.3" stop-color="#479cca"/><stop offset="0.31" stop-color="#479cca"/><stop offset="0.32" stop-color="#479cca"/><stop offset="0.33" stop-color="#489cc9"/><stop offset="0.34" stop-color="#489cc9"/><stop offset="0.35" stop-color="#489cc8"/><stop offset="0.36" stop-color="#489cc8"/><stop offset="0.37" stop-color="#489dc8"/><stop offset="0.38" stop-color="#489dc8"/><stop offset="0.39" stop-color="#489dc8"/><stop offset="0.4" stop-color="#489dc8"/><stop offset="0.41" stop-color="#499dc7"/><stop offset="0.42" stop-color="#4b9ec4"/><stop offset="0.43" stop-color="#4ca0c1"/><stop offset="0.44" stop-color="#4ea1bf"/><stop offset="0.45" stop-color="#50a3bc"/><stop offset="0.46" stop-color="#52a4b9"/><stop offset="0.47" stop-color="#53a6b6"/><stop offset="0.48" stop-color="#55a7b3"/><stop offset="0.49" stop-color="#57a8b1"/><stop offset="0.5" stop-color="#58aaae"/><stop offset="0.51" stop-color="#5aabab"/><stop offset="0.52" stop-color="#5cada8"/><stop offset="0.53" stop-color="#5eaea5"/><stop offset="0.54" stop-color="#5fafa3"/><stop offset="0.55" stop-color="#61b1a0"/><stop offset="0.56" stop-color="#63b29d"/><stop offset="0.57" stop-color="#65b49a"/><stop offset="0.58" stop-color="#66b597"/><stop offset="0.59" stop-color="#68b695"/><stop offset="0.6" stop-color="#6ab892"/><stop offset="0.61" stop-color="#6cb98f"/><stop offset="0.62" stop-color="#6dbb8c"/><stop offset="0.63" stop-color="#6fbc89"/><stop offset="0.64" stop-color="#71bd87"/><stop offset="0.65" stop-color="#72bf84"/><stop offset="0.66" stop-color="#74c081"/><stop offset="0.67" stop-color="#76c27e"/><stop offset="0.68" stop-color="#78c37b"/><stop offset="0.69" stop-color="#79c479"/><stop offset="0.7" stop-color="#7bc676"/><stop offset="0.71" stop-color="#7dc773"/><stop offset="0.72" stop-color="#7fc970"/><stop offset="0.73" stop-color="#80ca6d"/><stop offset="0.74" stop-color="#82cb6b"/><stop offset="0.75" stop-color="#84cd68"/><stop offset="0.76" stop-color="#85ce65"/><stop offset="0.77" stop-color="#87d062"/><stop offset="0.78" stop-color="#89d15f"/><stop offset="0.79" stop-color="#8bd25d"/><stop offset="0.8" stop-color="#8cd45a"/><stop offset="0.81" stop-color="#8ed557"/><stop offset="0.82" stop-color="#90d754"/><stop offset="0.83" stop-color="#92d851"/><stop offset="0.84" stop-color="#93d94f"/><stop offset="0.85" stop-color="#95db4c"/><stop offset="0.86" stop-color="#97dc49"/><stop offset="0.87" stop-color="#98de46"/><stop offset="0.88" stop-color="#9adf43"/><stop offset="0.89" stop-color="#9ce141"/><stop offset="0.9" stop-color="#9ee23e"/><stop offset="0.91" stop-color="#9fe33b"/><stop offset="0.92" stop-color="#a1e538"/><stop offset="0.93" stop-color="#a3e635"/><stop offset="0.94" stop-color="#a5e833"/><stop offset="0.95" stop-color="#a6e930"/><stop offset="0.96" stop-color="#a8ea2d"/><stop offset="0.97" stop-color="#aaec2a"/><stop offset="0.98" stop-color="#abed28"/><stop offset="0.99" stop-color="#adef25"/><stop offset="1" stop-color="#aeef21"/></linearGradient><clipPath id="g"><path d="M682.907,352.367A206.043,206.043,0,0,0,623.54,236.633c-21.425-21.141-77.73-57.515-109.525-55.167-2.683,3.865-7.838,7.977-10.085,12.988,1.081,2.347,30.434,24.634,38.766,34.392,14.568,17.062,19.679,44.788,22.975,48.905,1.92,14.306,4.983,26.842,5.769,42.407,1.58,31.187-3.845,42.466,21.481,72.865,25.458,30.561,24.082,24.406,2.493,42.682-6.065,5.133,4.285-1.857-3.22,2.223-11.013,5.985-10.605,10.845-6.757,25.638,3.053,11.746-1.82,12.216-6.388,18.134,12.1,15.9-8.682,13.845-9.53,34.219-2.564,61.634-49.779,31.25-110.932,31.827h0l-16.138,42.388c30.6,5.684,57.425,3.237,86.991-3.175,105.105-22.8,169.438-131.374,153.467-234.593"/></clipPath><linearGradient id="h" x1="0.25" y1="0.23" x2="0.161" y2="0.231" gradientUnits="objectBoundingBox"><stop offset="0" stop-color="#f8df22"/><stop offset="0.01" stop-color="#f8de23"/><stop offset="0.02" stop-color="#f8dd23"/><stop offset="0.03" stop-color="#f8dd23"/><stop offset="0.04" stop-color="#f8dc23"/><stop offset="0.05" stop-color="#f8dc23"/><stop offset="0.06" stop-color="#f8da23"/><stop offset="0.07" stop-color="#f8d923"/><stop offset="0.08" stop-color="#f8d923"/><stop offset="0.09" stop-color="#f8d823"/><stop offset="0.1" stop-color="#f8d723"/><stop offset="0.11" stop-color="#f8d723"/><stop offset="0.12" stop-color="#f7d523"/><stop offset="0.13" stop-color="#f7d423"/><stop offset="0.14" stop-color="#f7d423"/><stop offset="0.15" stop-color="#f7d323"/><stop offset="0.16" stop-color="#f7d223"/><stop offset="0.17" stop-color="#f7d223"/><stop offset="0.18" stop-color="#f7d023"/><stop offset="0.19" stop-color="#f7d023"/><stop offset="0.2" stop-color="#f7cf23"/><stop offset="0.21" stop-color="#f7ce23"/><stop offset="0.22" stop-color="#f7ce23"/><stop offset="0.23" stop-color="#f7cc23"/><stop offset="0.24" stop-color="#f7cb23"/><stop offset="0.25" stop-color="#f7cb23"/><stop offset="0.26" stop-color="#f7ca23"/><stop offset="0.27" stop-color="#f6c923"/><stop offset="0.28" stop-color="#f6c923"/><stop offset="0.29" stop-color="#f6c724"/><stop offset="0.3" stop-color="#f6c624"/><stop offset="0.31" stop-color="#f6c624"/><stop offset="0.32" stop-color="#f6c524"/><stop offset="0.33" stop-color="#f6c524"/><stop offset="0.34" stop-color="#f6c324"/><stop offset="0.35" stop-color="#f6c224"/><stop offset="0.36" stop-color="#f6c224"/><stop offset="0.37" stop-color="#f6c124"/><stop offset="0.38" stop-color="#f6c024"/><stop offset="0.39" stop-color="#f6c024"/><stop offset="0.4" stop-color="#f6be24"/><stop offset="0.41" stop-color="#f6bd24"/><stop offset="0.42" stop-color="#f6bd24"/><stop offset="0.43" stop-color="#f5bc24"/><stop offset="0.44" stop-color="#f5bb24"/><stop offset="0.45" stop-color="#f5bb24"/><stop offset="0.46" stop-color="#f5b924"/><stop offset="0.47" stop-color="#f5b924"/><stop offset="0.48" stop-color="#f5b824"/><stop offset="0.49" stop-color="#f5b724"/><stop offset="0.5" stop-color="#f5b724"/><stop offset="0.51" stop-color="#f5b524"/><stop offset="0.52" stop-color="#f5b424"/><stop offset="0.53" stop-color="#f5b424"/><stop offset="0.54" stop-color="#f5b324"/><stop offset="0.55" stop-color="#f5b224"/><stop offset="0.56" stop-color="#f5b224"/><stop offset="0.57" stop-color="#f5b024"/><stop offset="0.58" stop-color="#f5b024"/><stop offset="0.59" stop-color="#f5af24"/><stop offset="0.6" stop-color="#f4ae24"/><stop offset="0.61" stop-color="#f4ae24"/><stop offset="0.62" stop-color="#f4ac24"/><stop offset="0.63" stop-color="#f4ab24"/><stop offset="0.64" stop-color="#f4ab24"/><stop offset="0.65" stop-color="#f4aa24"/><stop offset="0.66" stop-color="#f4a924"/><stop offset="0.67" stop-color="#f4a924"/><stop offset="0.68" stop-color="#f4a724"/><stop offset="0.69" stop-color="#f4a624"/><stop offset="0.7" stop-color="#f4a624"/><stop offset="0.71" stop-color="#f4a524"/><stop offset="0.72" stop-color="#f4a524"/><stop offset="0.73" stop-color="#f4a324"/><stop offset="0.74" stop-color="#f4a224"/><stop offset="0.75" stop-color="#f4a224"/><stop offset="0.76" stop-color="#f3a124"/><stop offset="0.77" stop-color="#f3a025"/><stop offset="0.78" stop-color="#f3a025"/><stop offset="0.79" stop-color="#f39e25"/><stop offset="0.8" stop-color="#f39d25"/><stop offset="0.81" stop-color="#f39d25"/><stop offset="0.82" stop-color="#f39c25"/><stop offset="0.83" stop-color="#f39b25"/><stop offset="0.84" stop-color="#f39a25"/><stop offset="0.85" stop-color="#f39925"/><stop offset="0.86" stop-color="#f39925"/><stop offset="0.87" stop-color="#f39825"/><stop offset="0.88" stop-color="#f39725"/><stop offset="0.89" stop-color="#f39725"/><stop offset="0.9" stop-color="#f39525"/><stop offset="0.91" stop-color="#f39425"/><stop offset="0.92" stop-color="#f29425"/><stop offset="0.93" stop-color="#f29325"/><stop offset="0.94" stop-color="#f29225"/><stop offset="0.95" stop-color="#f29225"/><stop offset="0.96" stop-color="#f29025"/><stop offset="0.97" stop-color="#f28f25"/><stop offset="0.98" stop-color="#f28f25"/><stop offset="0.99" stop-color="#f28e25"/><stop offset="1" stop-color="#f18d24"/></linearGradient><clipPath id="i"><path d="M1991.4,838.082h317.832c1.107,0,2.013-2.952,2.013-6.558h0c0-3.608-.906-6.559-2.013-6.559H1991.4Z"/></clipPath><linearGradient id="j" x1="0.787" y1="0.703" x2="0.783" y2="0.806" gradientUnits="objectBoundingBox"><stop offset="0" stop-color="#f8df22"/><stop offset="0.01" stop-color="#f8de22"/><stop offset="0.02" stop-color="#f7dd22"/><stop offset="0.03" stop-color="#f7dc22"/><stop offset="0.04" stop-color="#f7db23"/><stop offset="0.05" stop-color="#f7db23"/><stop offset="0.06" stop-color="#f7da23"/><stop offset="0.07" stop-color="#f7d923"/><stop offset="0.08" stop-color="#f7d823"/><stop offset="0.09" stop-color="#f7d723"/><stop offset="0.1" stop-color="#f7d623"/><stop offset="0.11" stop-color="#f7d623"/><stop offset="0.12" stop-color="#f7d523"/><stop offset="0.13" stop-color="#f7d423"/><stop offset="0.14" stop-color="#f7d323"/><stop offset="0.15" stop-color="#f7d223"/><stop offset="0.16" stop-color="#f7d123"/><stop offset="0.17" stop-color="#f7d123"/><stop offset="0.18" stop-color="#f7d023"/><stop offset="0.19" stop-color="#f6cf23"/><stop offset="0.2" stop-color="#f6ce23"/><stop offset="0.21" stop-color="#f6cd23"/><stop offset="0.22" stop-color="#f6cd23"/><stop offset="0.23" stop-color="#f6cc23"/><stop offset="0.24" stop-color="#f6cb23"/><stop offset="0.25" stop-color="#f6ca23"/><stop offset="0.26" stop-color="#f6c923"/><stop offset="0.27" stop-color="#f6c823"/><stop offset="0.28" stop-color="#f6c823"/><stop offset="0.29" stop-color="#f6c723"/><stop offset="0.3" stop-color="#f6c623"/><stop offset="0.31" stop-color="#f6c523"/><stop offset="0.32" stop-color="#f6c423"/><stop offset="0.33" stop-color="#f6c423"/><stop offset="0.34" stop-color="#f6c323"/><stop offset="0.35" stop-color="#f5c223"/><stop offset="0.36" stop-color="#f5c123"/><stop offset="0.37" stop-color="#f5c023"/><stop offset="0.38" stop-color="#f5bf23"/><stop offset="0.39" stop-color="#f5bf23"/><stop offset="0.4" stop-color="#f5be23"/><stop offset="0.41" stop-color="#f5bd23"/><stop offset="0.42" stop-color="#f5bc23"/><stop offset="0.43" stop-color="#f5bb23"/><stop offset="0.44" stop-color="#f5ba23"/><stop offset="0.45" stop-color="#f5ba23"/><stop offset="0.46" stop-color="#f5b923"/><stop offset="0.47" stop-color="#f5b823"/><stop offset="0.48" stop-color="#f5b723"/><stop offset="0.49" stop-color="#f5b623"/><stop offset="0.5" stop-color="#f5b623"/><stop offset="0.51" stop-color="#f4b523"/><stop offset="0.52" stop-color="#f4b423"/><stop offset="0.53" stop-color="#f4b324"/><stop offset="0.54" stop-color="#f4b224"/><stop offset="0.55" stop-color="#f4b124"/><stop offset="0.56" stop-color="#f4b124"/><stop offset="0.57" stop-color="#f4b024"/><stop offset="0.58" stop-color="#f4af24"/><stop offset="0.59" stop-color="#f4ae24"/><stop offset="0.6" stop-color="#f4ad24"/><stop offset="0.61" stop-color="#f4ad24"/><stop offset="0.62" stop-color="#f4ac24"/><stop offset="0.63" stop-color="#f4ab24"/><stop offset="0.64" stop-color="#f4aa24"/><stop offset="0.65" stop-color="#f4a924"/><stop offset="0.66" stop-color="#f4a824"/><stop offset="0.67" stop-color="#f4a824"/><stop offset="0.68" stop-color="#f3a724"/><stop offset="0.69" stop-color="#f3a624"/><stop offset="0.7" stop-color="#f3a524"/><stop offset="0.71" stop-color="#f3a424"/><stop offset="0.72" stop-color="#f3a424"/><stop offset="0.73" stop-color="#f3a324"/><stop offset="0.74" stop-color="#f3a224"/><stop offset="0.75" stop-color="#f3a124"/><stop offset="0.76" stop-color="#f3a024"/><stop offset="0.77" stop-color="#f39f24"/><stop offset="0.78" stop-color="#f39f24"/><stop offset="0.79" stop-color="#f39e24"/><stop offset="0.8" stop-color="#f39d24"/><stop offset="0.81" stop-color="#f39c24"/><stop offset="0.82" stop-color="#f39b24"/><stop offset="0.83" stop-color="#f39a24"/><stop offset="0.84" stop-color="#f29a24"/><stop offset="0.85" stop-color="#f29924"/><stop offset="0.86" stop-color="#f29824"/><stop offset="0.87" stop-color="#f29724"/><stop offset="0.88" stop-color="#f29624"/><stop offset="0.89" stop-color="#f29624"/><stop offset="0.9" stop-color="#f29524"/><stop offset="0.91" stop-color="#f29424"/><stop offset="0.92" stop-color="#f29324"/><stop offset="0.93" stop-color="#f29224"/><stop offset="0.94" stop-color="#f29124"/><stop offset="0.95" stop-color="#f29124"/><stop offset="0.96" stop-color="#f29024"/><stop offset="0.97" stop-color="#f28f24"/><stop offset="0.98" stop-color="#f28e24"/><stop offset="0.99" stop-color="#f28d24"/><stop offset="1" stop-color="#f18d24"/></linearGradient><clipPath id="k"><path d="M1012.307,838.082H694.485c-1.107,0-2.013-2.952-2.013-6.558h0c0-3.608.907-6.559,2.013-6.559h317.821Z"/></clipPath><linearGradient id="l" x1="0.309" y1="0.617" x2="0.313" y2="0.721" xlink:href="#j"/><clipPath id="n"><rect width="2711" height="1230"/></clipPath></defs><g id="m" clip-path="url(#n)"><rect width="2711" height="1230" fill="#fff"/><g transform="translate(-15 -17.874)"><g clip-path="url(#a)"><g clip-path="url(#b)"><path d="M13.666-1249.1H2726.985V-13.666H13.666Z" transform="translate(0 1262.635)" fill="#fff" stroke="#fff" stroke-width="0.667" fill-rule="evenodd"/><path d="M458.941-773.526c3.133-2.367,1.835-.5,4.084-4.983.681-1.361,2.349-5.914,2.852-7.2,10.47-26.863,9.937-90.447,9.914-119.554-.021-28.133-1.412-83.911,1.255-110.988,1-10.194,3.484-23.234,3.445-33.379-9.728,12.224-17.5,35.756-21.439,54.275-9.85,46.327-1.884,99.378-.437,144.4.82,25.513-.836,52.988.327,77.437" transform="translate(0 1262.635)" fill="#bcd62b" fill-rule="evenodd"/><g clip-path="url(#c)"><path d="M0-739.982,2739.931-1891.953h0v-66.665h0L0-806.646" transform="translate(0 1262.635)" fill="url(#d)"/><path d="M0-740.937,2739.931-1893.273h0V0H0" transform="translate(0 1262.635)" fill="#aa1f40" fill-rule="evenodd"/><path d="M0-805.241,2739.931-1957.578h0v694.943H0" transform="translate(0 1262.635)" fill="#ed5483" fill-rule="evenodd"/></g><path d="M320.209-720.29c-45.752-34.818-62.546-165.942-61.474-221.508.173-8.918,5.493-30.822,1.257-18.881-3.653,10.3-16.585,39.672-18.777,69.522-4.185,57.016,20.09,147.332,78.994,170.866" transform="translate(0 1262.635)" fill="#57b03a" fill-rule="evenodd"/><g clip-path="url(#e)"><path d="M0-1334.633,2739.931-1285.3h0v891.978h0L0-442.656" transform="translate(0 1262.635)" fill="url(#f)"/><path d="M0-1333.367l2739.931,49.64h0v21.091H0" transform="translate(0 1262.635)" fill="#4398d1" fill-rule="evenodd"/><path d="M0-443.83l2739.931,49.641h0V0H0" transform="translate(0 1262.635)" fill="#aff022" fill-rule="evenodd"/></g><g clip-path="url(#g)"><path d="M0-6130.513,2739.931,14787.63h0v1899.952h0L0-4230.561" transform="translate(0 1262.635)" fill="url(#h)"/><path d="M0-6119.7,2739.931,14798.563h0v-16061.2H0" transform="translate(0 1262.635)" fill="#f8df23" fill-rule="evenodd"/><path d="M0-4241.094,2739.931,16677.184h0V0H0" transform="translate(0 1262.635)" fill="#f28d25" fill-rule="evenodd"/></g><path d="M2416.073-778.07c-2.587.553-5.2,1.077-7.813,1.567a71.633,71.633,0,0,0-10.266,2.7h0l-.107.039h0l-.12.035c-4.746,1.432-9.173,3.716-12.32,7.44h0l-.04.044h0l-.04.043a17.616,17.616,0,0,0-4.386,9.764,9.766,9.766,0,0,0,4.413,8.557,20.483,20.483,0,0,0,11.826,3.583,24.079,24.079,0,0,0,13.826-5.241c4.787-3.665,6.307-9.594,6.667-15.145a34.245,34.245,0,0,0-.507-9.114,39.512,39.512,0,0,0-1.133-4.271m-512.441-41.907c.253-3.481.52-6.962.773-10.444.253-3.383.613-6.76,1.12-10.117a22.547,22.547,0,0,0-2.333-6.145,23.221,23.221,0,0,0-4.8-5.972,26.921,26.921,0,0,0-6.533-4.413,14.4,14.4,0,0,0-6.24-1.461c-5.64,0-10.093,3.244-13.6,7.14a70.723,70.723,0,0,0-12.586,20.79,149.257,149.257,0,0,0-8.187,27.749,122.813,122.813,0,0,0-2.533,27.386c.2,6.637,1.16,13.873,3.987,20.011,1.506,3.26,3.546,5.68,7.52,5.68,4.36,0,8.373-3.768,10.92-6.7a116.551,116.551,0,0,0,13.52-19.587A229.225,229.225,0,0,0,1896.3-800,195.841,195.841,0,0,0,1903.632-819.977ZM1677.291-569.464c10.306-.233,18.213-4.6,24.466-12.242,8.253-10.1,13.8-22.563,17.72-34.686a277.249,277.249,0,0,0,10.76-50.213q3.02-23.881,4.573-47.9c-.747.488-1.493.973-2.253,1.455-3.76,2.412-7.44,4.937-11.066,7.52h0l-.053.036h0l-.053.036q-23,15.542-45.412,31.823c-11.986,8.769-23.333,19.083-31.719,31.077a67.692,67.692,0,0,0-9.28,18,46.15,46.15,0,0,0-2.4,16.181h0l.013.116h0v.116a40.325,40.325,0,0,0,4.6,18.4,42.2,42.2,0,0,0,12.866,13.157C1658.119-571.359,1667.625-569.472,1677.291-569.464Zm-132.93-250.512q.38-5.222.76-10.444c.253-3.383.613-6.76,1.12-10.117a22.536,22.536,0,0,0-2.333-6.145,23.446,23.446,0,0,0-4.786-5.972,27,27,0,0,0-6.547-4.413,14.39,14.39,0,0,0-6.226-1.461c-5.653,0-10.093,3.244-13.613,7.14a70.968,70.968,0,0,0-12.573,20.79,150.316,150.316,0,0,0-8.2,27.749,122.813,122.813,0,0,0-2.533,27.386c.2,6.637,1.16,13.873,3.986,20.011,1.507,3.26,3.547,5.68,7.52,5.68,4.36,0,8.373-3.768,10.933-6.7a117.261,117.261,0,0,0,13.506-19.587A226.6,226.6,0,0,0,1537.015-800,199.149,199.149,0,0,0,1544.361-819.977Zm-323,0q.384-5.222.769-10.444.372-5.074,1.121-10.117a22.807,22.807,0,0,0-2.336-6.145,23.191,23.191,0,0,0-4.792-5.972,26.976,26.976,0,0,0-6.543-4.413,14.411,14.411,0,0,0-6.23-1.461c-5.644,0-10.094,3.244-13.608,7.14a70.838,70.838,0,0,0-12.578,20.79,150,150,0,0,0-8.2,27.749,122.654,122.654,0,0,0-2.532,27.386c.2,6.637,1.164,13.873,3.989,20.011,1.5,3.26,3.544,5.68,7.521,5.68,4.36,0,8.37-3.768,10.925-6.7a116.965,116.965,0,0,0,13.512-19.587A228.144,228.144,0,0,0,1214.028-800,196.509,196.509,0,0,0,1221.365-819.977Zm1090.483-80.539c2.68,0,4.8-2.629,6.093-4.548a45.1,45.1,0,0,0,6.146-14.473,54.417,54.417,0,0,0,1.493-16.6c-.213-3.132-.973-7.246-3.613-9.442h0l-.094-.073h0l-.08-.077c-4.707-4.261-7.373-9.862-4.36-15.761h0l.04-.075h0l.04-.072a12.381,12.381,0,0,1,8.106-6.244,15.214,15.214,0,0,1,9.946,1.075h0l.08.039h0l.08.041a42.1,42.1,0,0,1,16.133,13.574,48.5,48.5,0,0,1,7.853,18.082,53.808,53.808,0,0,1,.44,19.436,51.47,51.47,0,0,1-6.253,17.944,39.847,39.847,0,0,1-12.986,13.628,35.056,35.056,0,0,1-19.4,5.46c-4.32,0-9.866-.345-13.546-2.723-2.867-1.851-5.053-4.433-5.36-7.792a10.449,10.449,0,0,1,2.227-7.472C2306.529-898.775,2308.836-900.516,2311.849-900.516Zm139.53,93.682a59.264,59.264,0,0,0,14.36-8.657c5.387-4.424,8.48-10.354,10.173-16.818a8.174,8.174,0,0,1,5.467-6.037,12.244,12.244,0,0,1,6.4-.372,11.031,11.031,0,0,1,5.933,3.239,7.676,7.676,0,0,1,2.027,7.381c-2.626,9.949-7.36,19.334-15.546,26.289a77.446,77.446,0,0,1-20.119,12.268,53.337,53.337,0,0,1,1.96,14.592,46.582,46.582,0,0,1-5.453,22.8,52.44,52.44,0,0,1-14.093,16.39,60.535,60.535,0,0,1-19.08,9.834,70.577,70.577,0,0,1-20.839,3.173c-10.32,0-19.986-2.472-28.493-8.03-9.36-6.12-13.226-15.362-13.226-25.921a31.083,31.083,0,0,1,8.987-21.965,43.669,43.669,0,0,1,9.12-7.633,48.591,48.591,0,0,1,12.173-5.536,86.741,86.741,0,0,1,11.32-3.085q1.78-.358,3.56-.751-.5-.736-1-1.48a48.91,48.91,0,0,0-5.267-5.205q-3.3-2.81-6.52-5.72a128.663,128.663,0,0,1-13.6-13.462c-5.147-5.93-7.307-13.344-7.867-20.867a34.147,34.147,0,0,1,1.92-15.844,35.642,35.642,0,0,1,8.453-12.957,39.016,39.016,0,0,1,13.093-8.47,44.991,44.991,0,0,1,16.626-2.955h.08l.094,0c8.4.253,16.439,2.449,22.679,7.941,6.373,5.6,9.027,13.268,9.573,21.294h0l.013.167h0v.165a7.771,7.771,0,0,1-3.76,6.593,12.9,12.9,0,0,1-5.72,1.963,10.6,10.6,0,0,1-6.88-1.6,8.368,8.368,0,0,1-3.773-7.321c0-2.98-.773-5.64-3.2-7.664-2.507-2.089-5.747-2.5-8.987-2.208h0l-.107.009h0l-.107.005a9.817,9.817,0,0,0-7.253,3.3,13.469,13.469,0,0,0-3.373,8.344,15.078,15.078,0,0,0,2.533,8.648c2.227,3.7,6.093,6.432,9.986,8.444h0l.067.032h0l.053.033q11.24,6.178,21.946,13.18A63.274,63.274,0,0,1,2451.379-806.834ZM2220.1-896.124a23.652,23.652,0,0,1-16.346-6.369,20.905,20.905,0,0,1-7.027-15.9,21.438,21.438,0,0,1,6.96-16.02,23.274,23.274,0,0,1,16.413-6.617,23.783,23.783,0,0,1,16.826,6.617,21.474,21.474,0,0,1,6.947,16.02,20.861,20.861,0,0,1-7.026,15.9A24.129,24.129,0,0,1,2220.1-896.124Zm-481.441,56.3v-3.2a22.593,22.593,0,0,1,.427-4.441,64.564,64.564,0,0,1,2.413-15.794,23.448,23.448,0,0,1,8-11.808c4.2-3.283,9.52-4.987,14.84-5.849a134.918,134.918,0,0,1,21.279-1.352H1792l-1.013,5.927a206.8,206.8,0,0,0-2.36,21.047q-.88,13.2-1.613,26.409-.84,15.19-1.4,30.39-.38,9.79-.8,19.577,6-6.12,11.453-12.688a106.86,106.86,0,0,0,7.213-9.734q.16-1.378.36-2.755a103.231,103.231,0,0,1,12.066-36.2,83.321,83.321,0,0,1,25.373-28.009c11.4-7.954,24.679-11.29,38.812-11.04h.093A51.291,51.291,0,0,1,1901.7-874a48.252,48.252,0,0,1,10.626,7.24,28.377,28.377,0,0,1,11.12-8.456,48.241,48.241,0,0,1,19.439-4.5,27.726,27.726,0,0,1,9.4,1.435c5.04,1.824,6.493,6.44,5.626,11.126h0l-.027.105h0l-.013.1c-1.4,6.065-2.573,12.177-3.573,18.31h0l-.013.048h0v.047c-1.4,7.593-2.653,15.21-3.813,22.839-1.16,7.756-2.173,15.533-2.987,23.327a204.67,204.67,0,0,0-1.187,21.761,81.761,81.761,0,0,0,1.893,18.089c1.053,4.653,3.253,12.381,9.613,12.381,4.4,0,9.28-3.352,12.466-5.957a61.733,61.733,0,0,0,11.413-14.569,170.966,170.966,0,0,0,9.986-20.209,207.994,207.994,0,0,0,7.68-21.744c.227-.819.467-1.637.707-2.456.747-13.526,1.693-27.041,2.733-40.55.667-8.478,4.027-16.353,12.866-19.7,7.653-2.9,16.64-3.655,24.813-3.655h.187l.187.012c2.733.177,6.746.461,9.226,1.587,4.307,1.945,4.573,6.464,3.787,10.322q-1.18,5.874-2.147,11.788a84.02,84.02,0,0,1,5.773-7.281,55.274,55.274,0,0,1,14.506-11.709,45.445,45.445,0,0,1,18.413-5.429h0l.12-.009h0l.12-.005a44.517,44.517,0,0,1,20.319,3.967,38.969,38.969,0,0,1,16.346,14.1h0l.027.041h0l.027.041a54.5,54.5,0,0,1,8,22.243,141.392,141.392,0,0,1,1.253,24.554q-.4,12.232-1.627,24.421c-.707,6.84-1.24,13.733-1.387,20.6-.093,4.261.04,9.209,1.227,13.348.413,1.457.813,1.868,2.413,1.868,4.48,0,8.56-1.94,12.053-4.435a62.255,62.255,0,0,0,13.173-13.137,130.108,130.108,0,0,0,11.64-18.448,184.979,184.979,0,0,0,8.84-19.375q1.16-3,2.227-6.022c.187-3.733.427-7.464.693-11.192.747-10.358,1.733-20.737,3.267-31.022,1.213-8.2,5.56-14.828,14.066-17.626,7.453-2.453,15.706-3.207,23.559-3.207h.187l.187.012c2.746.177,6.746.461,9.24,1.587,4.293,1.944,4.56,6.46,3.787,10.317q-3.62,17.886-6.84,35.843a326.444,326.444,0,0,0-4.36,36.146h0l-.013.047h0v.048a131.163,131.163,0,0,0-.387,17.433,88.251,88.251,0,0,0,1.907,15.061c1.027,4.686,3.213,12.35,9.6,12.35,4.4,0,9.28-3.352,12.466-5.957a61.733,61.733,0,0,0,11.413-14.569,151.386,151.386,0,0,0,9.76-20.138q4.3-10.8,7.72-21.891c2.027-6.557,3.867-13.189,5.347-19.874a8.2,8.2,0,0,1,5.493-6.144,12.244,12.244,0,0,1,6.4-.372,11.032,11.032,0,0,1,5.933,3.239,7.686,7.686,0,0,1,2.04,7.326c-1.813,7.649-3.88,15.252-6.093,22.807a213.724,213.724,0,0,1-9.08,25.038,192.151,192.151,0,0,1-12.013,23.237,78.064,78.064,0,0,1-15.506,18.706c-8.707,7.854-19.253,12.16-31.359,11.6a48.485,48.485,0,0,1-26.359-8.825,44.775,44.775,0,0,1-17.293-23.2h0l-.027-.045h0l-.013-.047a77.84,77.84,0,0,1-2.533-10.688,161.97,161.97,0,0,1-11.053,16.426,88.7,88.7,0,0,1-19.293,18.8c-6.96,4.884-14.853,7.948-23.613,7.948-10.293,0-20.973-2.025-28.706-8.865a43.7,43.7,0,0,1-13.24-21.606,85.253,85.253,0,0,1-2.587-27.477q.8-14.182,2.24-28.321c.867-8.48,1.56-16.981,2-25.49.253-4.929.187-11.489-1.787-16.162-.413-.84-1.52-2.848-2.6-3.107-3.453.117-6.333,2.119-8.64,4.417a63.624,63.624,0,0,0-10.413,14.358,144.179,144.179,0,0,0-9.16,20.461c-2.707,7.486-5.107,15.076-7.12,22.754-1.84,7-3.467,14.057-4.76,21.163a153.657,153.657,0,0,0-2.147,15.385c-.227,2.912-.4,5.837-.4,8.758v9.124c0,3-.2,6.575-1.386,9.385-1.76,4.131-6.067,5.587-10.493,5.587a89.457,89.457,0,0,1-16.173-1.193,27.932,27.932,0,0,1-11.586-4.655,16.729,16.729,0,0,1-6.373-10.088,53.925,53.925,0,0,1-1.133-12.237c.027-1.405.04-2.811.067-4.216-.267.452-.547.9-.813,1.352a78.441,78.441,0,0,1-15.52,18.706c-8.693,7.854-19.24,12.16-31.346,11.6a47.448,47.448,0,0,1-26.2-8.852,45.019,45.019,0,0,1-17.066-23.2,72.8,72.8,0,0,1-2.36-9q-.46.868-.92,1.733a118.893,118.893,0,0,1-12,18.481,61.479,61.479,0,0,1-15.453,13.964,39.931,39.931,0,0,1-19.906,6.144c-12.733.5-24.626-2.62-33.866-11.125a58.786,58.786,0,0,1-16.986-28.693c-.293-1.089-.56-2.184-.813-3.283a263.736,263.736,0,0,1-21.52,20.339q-1.6,22.511-3.906,44.969a439.31,439.31,0,0,1-7.133,45.95,277.651,277.651,0,0,1-12.107,41.614,141.478,141.478,0,0,1-18.626,34.435,88.532,88.532,0,0,1-27.026,24.051c-11.213,6.4-23.733,9.252-36.772,9.5h-.107c-13.853,0-27.133-3.045-38.506-10.713a50.083,50.083,0,0,1-19.119-19.743c-4.867-8.264-7.013-17.6-7.48-26.981a64.9,64.9,0,0,1,3.24-22.491,83,83,0,0,1,11.8-23.306c9.613-13.476,22.133-25.073,35.612-35.106q22.7-16.892,46.345-32.607,7.2-5.078,14.613-9.921,6.06-3.962,11.893-8.227.7-15.554,1.093-31.122c0-.127.013-.253.013-.38a136.522,136.522,0,0,1-10.986,19.51,71.521,71.521,0,0,1-16.559,17.513,35.468,35.468,0,0,1-22.466,6.913c-8.266-.263-16.506-2.015-23.333-6.606a43.243,43.243,0,0,1-14.2-15.932,71.094,71.094,0,0,1-6.347-17.377c-1.667,3.128-3.413,6.212-5.267,9.246a78.063,78.063,0,0,1-15.506,18.706c-8.706,7.854-19.253,12.16-31.359,11.6a47.484,47.484,0,0,1-26.2-8.852,45.018,45.018,0,0,1-17.066-23.2,77.936,77.936,0,0,1-2.36-9c-.307.579-.6,1.157-.907,1.733a119.969,119.969,0,0,1-12.013,18.481,61.649,61.649,0,0,1-15.44,13.964,39.979,39.979,0,0,1-19.919,6.144c-12.733.5-24.626-2.62-33.866-11.125a57.287,57.287,0,0,1-13.733-19.326c-.24.416-.493.831-.747,1.243a78.1,78.1,0,0,1-15.52,18.707c-8.693,7.855-19.239,12.158-31.346,11.6a47.5,47.5,0,0,1-26.2-8.852,45.205,45.205,0,0,1-17.04-23.114,80.036,80.036,0,0,1-4.293-21.91c-.573-8.478-.667-16.987-.413-25.478q.42-13.438,1.84-26.823,1.12-10.59,2.2-21.183c-1.026-.352-2.053-.68-3.093-.992-1.587-.48-3.173-.992-4.72-1.557a12.38,12.38,0,0,0-1.2-.389h-.027a98.456,98.456,0,0,1-2.44,13.6q-2.46,9.642-4.827,19.3a15.054,15.054,0,0,1-1.053,2.985c-1.373,5.208-2.88,10.386-4.467,15.541a239.684,239.684,0,0,1-9.266,24.967,191.373,191.373,0,0,1-12.009,23.237,78.226,78.226,0,0,1-15.514,18.706c-8.7,7.854-19.248,12.16-31.349,11.6a47.478,47.478,0,0,1-26.2-8.852,44.974,44.974,0,0,1-17.062-23.2,75.084,75.084,0,0,1-2.368-9q-.45.868-.909,1.733a120.2,120.2,0,0,1-12,18.481,61.644,61.644,0,0,1-15.449,13.964,39.961,39.961,0,0,1-19.916,6.144c-12.732.5-24.627-2.62-33.859-11.125a58.8,58.8,0,0,1-16.994-28.693,91.324,91.324,0,0,1-1.731-36.412,103.325,103.325,0,0,1,12.07-36.2A83.344,83.344,0,0,1,1159-868.306c11.408-7.954,24.687-11.29,38.814-11.04h.1A51.254,51.254,0,0,1,1219.427-874a48.327,48.327,0,0,1,10.633,7.24,28.344,28.344,0,0,1,11.11-8.456,48.26,48.26,0,0,1,19.443-4.5,27.776,27.776,0,0,1,9.405,1.435c5.037,1.824,6.483,6.44,5.62,11.126h0l-.019.105h0l-.025.1c-1.395,6.065-2.565,12.177-3.569,18.31h0l-.007.048h0l-.009.047q-2.1,11.39-3.805,22.839-1.752,11.634-3,23.327a208.236,208.236,0,0,0-1.184,21.761,81.69,81.69,0,0,0,1.9,18.089c1.059,4.653,3.252,12.381,9.613,12.381,4.4,0,9.281-3.352,12.462-5.957a61.447,61.447,0,0,0,11.412-14.569,168.921,168.921,0,0,0,9.986-20.209,204.921,204.921,0,0,0,7.678-21.744c1.933-6.672,3.815-13.36,5.595-20.069a8.747,8.747,0,0,1,.832-2.2q1.852-7.1,3.6-14.218a79.9,79.9,0,0,0,2.233-16.457,23.99,23.99,0,0,1-7.469-7.352,20.931,20.931,0,0,1-3.372-11.173c0-5.376,1.533-10.5,5.518-14.468a22.552,22.552,0,0,1,11.994-6.435,20.81,20.81,0,0,1,12.44,1.325,11.669,11.669,0,0,1,7.106,11.182c0,2.235-1.293,4.052-2.827,5.637a16.382,16.382,0,0,0-2.093,2.888,16.071,16.071,0,0,0-1.68,4.19,5.308,5.308,0,0,0-.147,1.832h0l5.667,2.2a104.185,104.185,0,0,0,19.36,4.093c6.746.844,13.559,1.509,20.359,1.781,4.12,0,10.413.067,13.373,3.131,3.213,3.321,1.88,8.6.627,12.456-1.84,7.265-3.36,14.633-4.733,21.989q-2.4,12.918-3.56,26.006c-.76,8.441-1.253,16.91-1.4,25.382-.093,6.1.04,12.817,1.307,18.813.693,3.283,1.987,7.752,4.347,10.356a5.534,5.534,0,0,0,4.88,1.964h0l.187-.012h.187c4.4,0,9.28-3.352,12.467-5.958a61.677,61.677,0,0,0,11.413-14.569,149.589,149.589,0,0,0,9.746-20.137c.173-.411.333-.824.493-1.235a107.693,107.693,0,0,1,1.026-12.422,103.237,103.237,0,0,1,12.067-36.2,83.321,83.321,0,0,1,25.373-28.009c11.4-7.954,24.679-11.29,38.812-11.04h.093A51.24,51.24,0,0,1,1542.415-874a48.649,48.649,0,0,1,10.64,7.24,28.332,28.332,0,0,1,11.106-8.456,48.241,48.241,0,0,1,19.439-4.5,27.8,27.8,0,0,1,9.413,1.435c5.027,1.824,6.48,6.44,5.613,11.126h0l-.013.105h0l-.027.1c-1.4,6.065-2.573,12.177-3.573,18.31h0v.048h0l-.013.047q-2.1,11.39-3.8,22.839-1.76,11.634-3,23.327a208.239,208.239,0,0,0-1.187,21.761,81.76,81.76,0,0,0,1.893,18.089c1.067,4.653,3.253,12.381,9.613,12.381,4.4,0,9.28-3.352,12.466-5.957a61.729,61.729,0,0,0,11.413-14.569,168.883,168.883,0,0,0,9.986-20.209,204.875,204.875,0,0,0,7.68-21.744l.52-1.812c.094-1.336.2-2.672.307-4.007.627-7.179,1.2-14.361,1.813-21.54.227-2.559.467-5.118.6-7.681q.22-4.04.627-8.066c.786-8.088,3.84-16.39,12.373-19.76,7.68-3.031,18.253-3.5,26.493-3.5h.187l.187.012c2.733.177,6.867.46,9.293,1.715,4.027,2.08,4.067,6.479,3.333,10.182h0l-.027.089h0l-.013.088a151.577,151.577,0,0,0-2.933,15.392c-.72,5.333-1.307,10.685-1.8,16.041h0v.081h0l-.013.08c-1.173,9.3-1.987,18.65-2.6,28a260.372,260.372,0,0,0-.386,28.489c.307,6.967,1.08,14.5,3.2,21.2.507,1.6,1.747,5.285,4.08,5.285,5.453,0,9.786-4.384,12.706-8.254a107.816,107.816,0,0,0,13.28-23.9,266.634,266.634,0,0,0,10.293-29.75C1734-822.747,1736.383-831.275,1738.663-839.824ZM967.833-992.486c-1.008,11.906-2.335,23.8-3.853,35.65-2.275,17.766-5.017,35.483-8.1,53.141q-4.846,27.779-11.981,55.143a451.633,451.633,0,0,1-16.918,52.029,231.787,231.787,0,0,1-22.677,44.018c-7.941,11.824-17.641,22.669-29.554,31.1a64.967,64.967,0,0,1-38.34,12.157,53.624,53.624,0,0,1-25.222-5.938,56.076,56.076,0,0,1-18.474-15.32,67.082,67.082,0,0,1-10.9-20.894,62.458,62.458,0,0,1-2.837-23.53c.517-7.27,1.915-14.784,5.1-21.466,3.361-7.048,9.474-11.022,17.64-11.4a16.719,16.719,0,0,1,15.761,6.93h0l1.693,2.3h0l-1.141,2.585c-2.4,5.432-3.252,12.406-3.625,18.234a85.777,85.777,0,0,0,1.716,23.5,51.15,51.15,0,0,0,8.056,19.145c3,4.2,6.8,6.5,12.23,6.5,9.93,0,18.093-4.377,24.985-10.9,9.506-9,17-20.33,22.982-31.646a299.147,299.147,0,0,0,19.429-46.976c6.053-18.528,11.274-37.3,15.821-56.2q7.068-29.381,12.236-59.132,4.906-28.131,9.052-56.377c2.271-15.664,4.4-31.355,6.232-47.071,1.253-10.781,2.5-21.569,3.622-32.363h0l.353-3.407h0l3.473-.993c5.522-1.577,11.53-1.947,16.728.8,5.305,2.8,9.572,8.732,12.537,13.592,6.721,11.017,12.044,23.67,16.716,35.572,6.388,16.269,12.272,32.724,17.826,49.261q9.532,28.371,18,57.047,8.666,29.235,16.761,58.615c4.769,17.352,9.293,34.77,13.442,52.264.627-11.49,1.5-22.971,2.509-34.431,1.567-17.8,3.64-35.567,6.074-53.28q3.838-27.925,10.16-55.483a542.848,542.848,0,0,1,14.852-52.607,227.293,227.293,0,0,1,20.42-44.964c7.207-11.874,16.2-22.977,27.49-31.658a58.814,58.814,0,0,1,36.584-12.466,51.471,51.471,0,0,1,18.484,2.432,24.948,24.948,0,0,1,13.769,10.8h0l.024.041h0l.025.043a11.506,11.506,0,0,1,1.4,7.753,13.074,13.074,0,0,1-2.956,6.427,12.259,12.259,0,0,1-5.788,3.843,8.086,8.086,0,0,1-9.249-3.389c-1.565-2.3-4.221-5.519-7.418-5.682-9.281-.476-17.049,3.626-23.507,9.658-9.353,8.734-16.618,20.157-22.322,31.262a308.36,308.36,0,0,0-19.042,47.24c-5.92,18.566-10.945,37.384-15.212,56.347q-6.62,29.415-11.85,59.088c-3.259,18.489-6.194,37.035-8.637,55.635-2.015,15.341-3.936,30.7-5.633,46.073-1.095,9.909-2.2,19.861-3.012,29.794h0l-.085,1.043h0l-.512.928a9.942,9.942,0,0,1-4.884,3.891,27.569,27.569,0,0,1-6.094,1.859,23.377,23.377,0,0,1-7.477.24,16.522,16.522,0,0,1-7.894-3.264h0l-.1-.075h0l-.1-.08c-9.025-7.488-16.032-20.19-20.917-30.386a449.374,449.374,0,0,1-19.574-48.9c-6.765-19.8-12.842-39.824-18.432-59.949q-8.756-31.523-16.376-63.316c-4.665-19.517-9.088-39.091-13.138-58.731Q968.008-991.633,967.833-992.486Z" transform="translate(0 1262.635)" fill-rule="evenodd"/><path d="M2499.9-203.483c0,9.124-2.787,16.114-8.373,21.035q-8.38,7.35-24.093,7.349a44,44,0,0,1-18.959-3.8,24.47,24.47,0,0,1-11.653-10.686h0l12.253-13.137a16.612,16.612,0,0,0,7.173,8.046,21.336,21.336,0,0,0,11.173,3.105c4.067,0,7.173-.908,9.28-2.725,2.093-1.795,3.147-4.456,3.147-7.961q0-4.564-4.227-8.28-4.18-3.706-14.893-9.377-11.74-6.272-16.56-12.693a24.636,24.636,0,0,1-4.84-15.228q0-12.26,8.4-19.557,8.42-7.318,22.733-7.308a35.386,35.386,0,0,1,15.32,3.127,28.574,28.574,0,0,1,11.093,9.313h0l-11.92,12.524a15.223,15.223,0,0,0-6.053-6.083,17.263,17.263,0,0,0-8.707-2.407,12.145,12.145,0,0,0-8.16,2.576,7.976,7.976,0,0,0-3.04,6.336q0,7.6,14.093,14.912c1.72.865,3.04,1.563,3.987,2.048q12.38,6.622,17.613,13.178a24.392,24.392,0,0,1,5.213,15.693m-73.238,21.141q-4,2.852-11.733,5.048a51.884,51.884,0,0,1-13.986,2.2q-22.4,0-35.373-13.516t-12.946-36.411q0-21.765,13.373-35.714,13.36-13.972,35.346-13.961a59.157,59.157,0,0,1,14.16,1.479,36.343,36.343,0,0,1,11.16,4.836h0v20.655a37.547,37.547,0,0,0-11.227-6.652,34.421,34.421,0,0,0-12.293-2.324q-13.78,0-22.066,8.66-8.28,8.68-8.266,23.021,0,14.73,7.573,23.337c5.027,5.724,11.986,8.6,20.826,8.6a37.058,37.058,0,0,0,14.12-2.533,33.461,33.461,0,0,0,11.333-7.857Zm-89.838,5.217h-19.4v-95.547h19.4ZM2306.129-256.2H2287.4v79.074H2268V-256.2H2249.25v-16.473h56.878Zm-67.852,79.074h-49.892v-95.547h49.892V-256.2h-30.093v22.3h30.093v16.473h-30.093V-193.6h30.093Zm-70.732,0h-19.4v-40.3h-34.306v40.3h-19.4v-95.547h19.4V-233.9h34.306v-38.776h19.4ZM2080.161-256.2h-18.746v79.074h-19.4V-256.2h-18.733v-16.473h56.879ZM2015.2-203.483c0,9.124-2.8,16.114-8.386,21.035q-8.38,7.35-24.079,7.349a43.955,43.955,0,0,1-18.959-3.8,24.35,24.35,0,0,1-11.653-10.686h0l12.24-13.137a16.611,16.611,0,0,0,7.173,8.046,21.335,21.335,0,0,0,11.173,3.105q6.12,0,9.28-2.725c2.093-1.795,3.147-4.456,3.147-7.961q0-4.564-4.213-8.28t-14.893-9.377q-11.74-6.272-16.56-12.693a24.552,24.552,0,0,1-4.84-15.228q0-12.26,8.4-19.557,8.42-7.318,22.719-7.308a35.447,35.447,0,0,1,15.333,3.127,28.537,28.537,0,0,1,11.08,9.313h0l-11.92,12.524a15.223,15.223,0,0,0-6.053-6.083,17.228,17.228,0,0,0-8.706-2.407,12.168,12.168,0,0,0-8.16,2.576,7.976,7.976,0,0,0-3.04,6.336c0,5.069,4.72,10.053,14.106,14.912,1.72.865,3.04,1.563,3.987,2.048q12.36,6.622,17.613,13.178A24.392,24.392,0,0,1,2015.2-203.483Zm-75.785,26.358h-49.879v-95.547h49.879V-256.2h-30.079v22.3h30.079v16.473h-30.079V-193.6h30.079Zm-62.132,0h-21.653l-6.507-21.162h-34.132l-6.587,21.162h-21.666l33.786-95.547h23.053Zm-32.733-36.368-12.56-40.678h0L1819.5-213.493Zm-131.61,67.541h-13.32V-272.672h13.32Zm-86.678-57.531c0,9.124-2.8,16.114-8.386,21.035q-8.38,7.35-24.079,7.349a43.955,43.955,0,0,1-18.959-3.8,24.441,24.441,0,0,1-11.666-10.686h0l12.253-13.137a16.611,16.611,0,0,0,7.173,8.046,21.335,21.335,0,0,0,11.173,3.105c4.067,0,7.173-.908,9.28-2.725,2.093-1.795,3.147-4.456,3.147-7.961q0-4.564-4.227-8.28-4.18-3.706-14.893-9.377-11.74-6.272-16.56-12.693a24.636,24.636,0,0,1-4.84-15.228q0-12.26,8.4-19.557,8.42-7.318,22.733-7.308a35.386,35.386,0,0,1,15.32,3.127,28.574,28.574,0,0,1,11.093,9.313h0l-11.92,12.524a15.224,15.224,0,0,0-6.053-6.083,17.228,17.228,0,0,0-8.707-2.407,12.145,12.145,0,0,0-8.16,2.576,7.977,7.977,0,0,0-3.04,6.336q0,7.6,14.106,14.912c1.707.865,3.027,1.563,3.973,2.048q12.38,6.622,17.626,13.178A24.467,24.467,0,0,1,1626.266-203.483Zm-69.6,26.358h-23.279l-23.439-43.592h0v43.592h-19.4v-95.547h26.813q16.819,0,25.559,6.821t8.72,19.81q0,11.026-5.8,17.7a22.263,22.263,0,0,1-15.226,7.624Zm-25.213-67.268q0-6.812-4.173-9.948c-2.8-2.091-7.106-3.125-12.96-3.125h-4.373v25.851h4.373q8.64,0,12.893-3.127T1531.455-244.393Zm-60.425,67.268h-49.892v-95.547h49.892V-256.2h-30.093v22.3h30.093v16.473h-30.093V-193.6h30.093ZM1404.4-203.483c0,9.124-2.8,16.114-8.386,21.035q-8.38,7.35-24.079,7.349a43.955,43.955,0,0,1-18.959-3.8,24.442,24.442,0,0,1-11.666-10.686h0l12.253-13.137a16.61,16.61,0,0,0,7.173,8.046,21.334,21.334,0,0,0,11.173,3.105c4.067,0,7.173-.908,9.28-2.725,2.093-1.795,3.147-4.456,3.147-7.961,0-3.043-1.4-5.808-4.227-8.28q-4.18-3.706-14.88-9.377-11.76-6.272-16.573-12.693a24.635,24.635,0,0,1-4.84-15.228q0-12.26,8.413-19.557,8.4-7.318,22.719-7.308a35.489,35.489,0,0,1,15.333,3.127,28.633,28.633,0,0,1,11.08,9.313h0l-11.92,12.524a15.222,15.222,0,0,0-6.053-6.083,17.226,17.226,0,0,0-8.706-2.407,12.169,12.169,0,0,0-8.16,2.576,7.976,7.976,0,0,0-3.04,6.336q0,7.6,14.106,14.912c1.707.865,3.027,1.563,3.973,2.048q12.38,6.622,17.626,13.178A24.468,24.468,0,0,1,1404.4-203.483Zm-69.292,26.358h-21.646l-6.51-21.162h-34.138l-6.576,21.162h-21.666l33.786-95.547h23.05Zm-32.733-36.368-12.56-40.678h0l-12.493,40.678Zm-65,36.368h-43.815v-95.547h19.4V-193.6h24.414Zm-126.192,31.173h-13.329V-272.672h13.329Zm-82.51-31.173h-23.272l-23.446-43.592h0v43.592h-19.4v-95.547h26.813q16.826,0,25.558,6.821t8.733,19.81q0,11.026-5.808,17.7a22.253,22.253,0,0,1-15.221,7.624Zm-25.207-67.268q0-6.812-4.179-9.948t-12.956-3.125h-4.376v25.851h4.376q8.646,0,12.889-3.127C1002.064-236.831,1003.471-240.042,1003.471-244.393Zm-61.856,67.268h-19.4v-95.547h19.4Zm-30.863,0H889.108L882.6-198.287H848.46l-6.576,21.162H820.219L854-272.672h23.051Zm-32.729-36.368-12.561-40.678h0l-12.492,40.678Zm-70.061,36.368h-19.4v-40.3H754.25v40.3h-19.4v-95.547h19.4V-233.9h34.313v-38.776h19.4ZM652.473-145.952H639.144V-272.672h13.329Zm-90.78-31.173h-19L496.366-241.6h0v64.48h-19v-95.547h19l46.323,64.225h0v-64.225h19Zm-105.273,0h-19.4v-95.547h19.4Zm-28.687,0H404.219l-33.235-49.949h0v49.949h-19.4v-95.547h19.4v43.444h0l32.993-43.444h22.567l-35.39,43.7Zm-92.891-26.358c0,9.124-2.793,16.114-8.381,21.035q-8.38,7.35-24.085,7.349a43.975,43.975,0,0,1-18.96-3.8,24.447,24.447,0,0,1-11.658-10.686h0l12.252-13.137a16.605,16.605,0,0,0,7.171,8.046,21.329,21.329,0,0,0,11.174,3.105c4.068,0,7.171-.908,9.281-2.725,2.091-1.795,3.145-4.456,3.145-7.961q0-4.564-4.223-8.28-4.19-3.706-14.89-9.377-11.746-6.272-16.562-12.693a24.586,24.586,0,0,1-4.84-15.228q0-12.26,8.4-19.557,8.412-7.318,22.721-7.308a35.441,35.441,0,0,1,15.332,3.127,28.571,28.571,0,0,1,11.085,9.313h0l-11.921,12.524a15.221,15.221,0,0,0-6.049-6.083,17.26,17.26,0,0,0-8.71-2.407,12.164,12.164,0,0,0-8.16,2.576,7.979,7.979,0,0,0-3.035,6.336q0,7.6,14.1,14.912c1.716.865,3.035,1.563,3.981,2.048q12.372,6.622,17.618,13.178A24.415,24.415,0,0,1,334.841-203.483Z" transform="translate(0 1262.635)"/><path d="M1946.565-435.776c6.307,2.692,11.08,6.264,14.266,10.72a26.365,26.365,0,0,1,4.813,15.83q0,13.364-8.52,21.551c-5.68,5.451-13.186,8.186-22.573,8.186q-11.46,0-19.213-5.857t-10.48-16.644h0l10.48-5.18q2.12,8.82,7,13.366a17.178,17.178,0,0,0,12.213,4.545q8.68,0,14.066-5a17.033,17.033,0,0,0,5.36-13.025,17.8,17.8,0,0,0-3.747-11.308c-2.493-3.212-6.24-5.9-11.293-8.118h0l-11.8-5.043c-6.44-2.692-11.266-6.152-14.413-10.4a24.763,24.763,0,0,1-4.746-15.242,21.746,21.746,0,0,1,7.693-17.1q7.7-6.75,19.626-6.761a29.72,29.72,0,0,1,15.133,3.709,25.093,25.093,0,0,1,9.973,10.968h0l-9.546,6.083a24.681,24.681,0,0,0-7.28-8.366,15.892,15.892,0,0,0-9.133-2.76,14.758,14.758,0,0,0-10.653,3.981,13.418,13.418,0,0,0-4.146,10.132,13.362,13.362,0,0,0,3.2,8.932c2.093,2.533,5.4,4.749,9.853,6.694Zm-76.678-19.968a46.788,46.788,0,0,0-14.826-11.172,41.351,41.351,0,0,0-17.439-3.619,37.925,37.925,0,0,0-15.013,3.12,38.407,38.407,0,0,0-12.693,8.685,38.775,38.775,0,0,0-8.346,12.889A42.956,42.956,0,0,0,1798.8-430.1a44.466,44.466,0,0,0,1.64,12.46,35.419,35.419,0,0,0,4.987,10.47,40.3,40.3,0,0,0,14.333,12.756,38.9,38.9,0,0,0,18.386,4.477,39.089,39.089,0,0,0,17.226-3.844,44.625,44.625,0,0,0,14.519-11.466h0v15.31a55.281,55.281,0,0,1-15.533,7.916,55.8,55.8,0,0,1-17.213,2.668,50.153,50.153,0,0,1-14.973-2.284,50.839,50.839,0,0,1-13.653-6.672,50.026,50.026,0,0,1-16.2-18.069,50.408,50.408,0,0,1-5.6-23.587,53.238,53.238,0,0,1,3.747-20.376,48.83,48.83,0,0,1,11.426-16.666,49.606,49.606,0,0,1,16.44-10.7,53.11,53.11,0,0,1,19.68-3.551,52.752,52.752,0,0,1,16.306,2.555,58.878,58.878,0,0,1,15.573,7.893Zm-135.33,73.813v-97.016h11.533v97.016Zm-73.6,0v-86.026h-27.413v-10.99h66.345v10.99h-27.266v86.026Zm-109.3,0v-97.016H1602.8v10.584h-39.612v27.817H1602.8v10.718h-39.612v37.179H1602.8v10.718Zm-119.65,0v-97.016h11.533v37.314H1495.1v-37.314h11.68v97.016H1495.1v-48.711h-51.559v48.711Zm-73.465,0v-86.026h-27.4v-10.99h66.349v10.99h-27.266v86.026Zm-73.05-53.845q9.466,4.038,14.27,10.72a26.376,26.376,0,0,1,4.817,15.83q0,13.364-8.526,21.551t-22.569,8.186q-11.466,0-19.222-5.857-7.734-5.868-10.47-16.644h0l10.47-5.18q2.136,8.82,7.01,13.366a17.162,17.162,0,0,0,12.212,4.545q8.684,0,14.066-5a17.033,17.033,0,0,0,5.36-13.025,17.785,17.785,0,0,0-3.755-11.308c-2.488-3.212-6.241-5.9-11.285-8.118h0l-11.8-5.043c-6.445-2.692-11.262-6.152-14.406-10.4a24.73,24.73,0,0,1-4.749-15.242,21.743,21.743,0,0,1,7.689-17.1q7.7-6.75,19.63-6.761a29.7,29.7,0,0,1,15.129,3.709,25.056,25.056,0,0,1,9.973,10.968h0l-9.544,6.083a24.725,24.725,0,0,0-7.281-8.366,15.889,15.889,0,0,0-9.137-2.76,14.762,14.762,0,0,0-10.652,3.981,13.416,13.416,0,0,0-4.139,10.132,13.394,13.394,0,0,0,3.189,8.932c2.1,2.533,5.405,4.749,9.86,6.694ZM1157.82-381.93v-97.016h51.153v10.584h-39.62v27.817h39.62v10.718h-39.62v37.179h39.62v10.718Zm-75.814-100.815,44.121,100.815h-12.506l-12.6-29.715h-37.879l-12.6,29.715h-12.484Zm0,25.509-15.424,35.686h30.87Z" transform="translate(0 1262.635)"/><g clip-path="url(#i)"><path d="M0-858.645,2739.931-353.324h0v61.332h0L0-797.313" transform="translate(0 1262.635)" fill="url(#j)"/><path d="M0-856.821,2739.931-351.442h0v-911.193H0" transform="translate(0 1262.635)" fill="#f8df22" fill-rule="evenodd"/><path d="M0-799.02,2739.931-293.641h0V0H0" transform="translate(0 1262.635)" fill="#f18d24" fill-rule="evenodd"/></g><g clip-path="url(#k)"><path d="M0-303.992,2739.931-809.313h0v60h0L0-243.994" transform="translate(0 1262.635)" fill="url(#l)"/><path d="M0-302.594,2739.931-808.6h0v-454.035H0" transform="translate(0 1262.635)" fill="#f8df22" fill-rule="evenodd"/><path d="M0-244.789l2739.931-506h0V0H0" transform="translate(0 1262.635)" fill="#f18d24" fill-rule="evenodd"/></g></g></g></g></g></svg>